<svg width="21" height="21" viewBox="0 0 21 21" fill="none" xmlns="http://www.w3.org/2000/svg">
<g clip-path="url(#clip0_8_18857)">
<path d="M19.0195 0.0834961H1.97656C1.16016 0.0834961 0.5 0.728027 0.5 1.5249V18.6382C0.5 19.4351 1.16016 20.0835 1.97656 20.0835H19.0195C19.8359 20.0835 20.5 19.4351 20.5 18.6421V1.5249C20.5 0.728027 19.8359 0.0834961 19.0195 0.0834961ZM6.43359 17.1265H3.46484V7.57959H6.43359V17.1265ZM4.94922 6.27881C3.99609 6.27881 3.22656 5.50928 3.22656 4.56006C3.22656 3.61084 3.99609 2.84131 4.94922 2.84131C5.89844 2.84131 6.66797 3.61084 6.66797 4.56006C6.66797 5.50537 5.89844 6.27881 4.94922 6.27881ZM17.543 17.1265H14.5781V12.4858C14.5781 11.3804 14.5586 9.95459 13.0352 9.95459C11.4922 9.95459 11.2578 11.1616 11.2578 12.4077V17.1265H8.29688V7.57959H11.1406V8.88428H11.1797C11.5742 8.13428 12.543 7.34131 13.9844 7.34131C16.9883 7.34131 17.543 9.31787 17.543 11.8882V17.1265Z" fill="#FFFEFF"/>
</g>
<defs>
<clipPath id="clip0_8_18857">
<rect width="20" height="20" fill="white" transform="translate(0.5 0.0834961)"/>
</clipPath>
</defs>
</svg>
