<svg width="21" height="21" viewBox="0 0 21 21" fill="none" xmlns="http://www.w3.org/2000/svg">
<g clip-path="url(#clip0_8_18856)">
<path d="M6.7918 18.2086C14.3371 18.2086 18.4652 11.9559 18.4652 6.53517C18.4652 6.35939 18.4613 6.1797 18.4535 6.00392C19.2566 5.42317 19.9496 4.70383 20.5 3.8797C19.7521 4.21245 18.958 4.42977 18.1449 4.52423C19.0011 4.01104 19.6421 3.20484 19.9492 2.25509C19.1438 2.73242 18.263 3.06913 17.3445 3.25079C16.7257 2.59325 15.9075 2.15788 15.0164 2.01199C14.1253 1.86611 13.211 2.01783 12.4148 2.4437C11.6186 2.86957 10.9848 3.54587 10.6115 4.36804C10.2382 5.19022 10.1462 6.11246 10.3496 6.9922C8.71874 6.91036 7.12328 6.4867 5.66665 5.7487C4.21002 5.0107 2.92474 3.97482 1.89414 2.70822C1.37033 3.61132 1.21005 4.67999 1.44586 5.69703C1.68167 6.71407 2.29589 7.60316 3.16367 8.18361C2.51219 8.16292 1.87498 7.98752 1.30469 7.67189V7.72267C1.3041 8.67041 1.63175 9.58911 2.23192 10.3226C2.8321 11.0561 3.66777 11.5591 4.59687 11.7461C3.99338 11.9112 3.35999 11.9353 2.7457 11.8164C3.00788 12.6315 3.51798 13.3444 4.20481 13.8556C4.89164 14.3668 5.72093 14.6508 6.57695 14.668C5.12369 15.8095 3.32848 16.4287 1.48047 16.4258C1.15274 16.4253 0.825333 16.4052 0.5 16.3656C2.37738 17.5701 4.56128 18.2098 6.7918 18.2086Z" fill="#FFFEFF"/>
</g>
<defs>
<clipPath id="clip0_8_18856">
<rect width="20" height="20" fill="white" transform="translate(0.5 0.0834961)"/>
</clipPath>
</defs>
</svg>
